PathFileType  4	(X/Y/Z) C:\Users\antoi\Documents\MyRepositories\mobilecap\ResultsAnalysis
DataRate	CameraRate	NumFrames	NumMarkers	Units	OrigDataRate	OrigDataStartFrame	OrigNumFrames
100.0	100.0	4	51	mm	100.0	194	221
Frame#	Time	r_knee			r_shank_antsup			r_ankle			r_calc			r_5meta			r_toe			L_knee			L_shank_antsup			L_ankle			L_calc			L_5meta			L_toe			r_sh2			r_sh3			r_sh4			L_sh2			L_sh3			r_thigh1			r_thigh2			r_thigh3			r_thigh4			r_thigh5			L_thigh1			L_thigh2			L_thigh3			L_thigh4			r.ASIS			r.PSIS			L.ASIS			L.PSIS			C7			R_Shoulder			L_Shoulder			R_Sternum			L_Sternum			R_humerus			R_elbow_med			R_elbow_lat			R_forearm			R_wrist_radius			R_wrist_ulna			L_humerus			L_elbow_med			L_elbow_lat			L_forearm			L_wrist_radius			L_wrist_ulna			R_HJC			L_HJC			R_HJC_reg			L_HJC_reg			
		X1	Y1	Z1	X2	Y2	Z2	X3	Y3	Z3	X4	Y4	Z4	X5	Y5	Z5	X6	Y6	Z6	X7	Y7	Z7	X8	Y8	Z8	X9	Y9	Z9	X10	Y10	Z10	X11	Y11	Z11	X12	Y12	Z12	X13	Y13	Z13	X14	Y14	Z14	X15	Y15	Z15	X16	Y16	Z16	X17	Y17	Z17	X18	Y18	Z18	X19	Y19	Z19	X20	Y20	Z20	X21	Y21	Z21	X22	Y22	Z22	X23	Y23	Z23	X24	Y24	Z24	X25	Y25	Z25	X26	Y26	Z26	X27	Y27	Z27	X28	Y28	Z28	X29	Y29	Z29	X30	Y30	Z30	X31	Y31	Z31	X32	Y32	Z32	X33	Y33	Z33	X34	Y34	Z34	X35	Y35	Z35	X36	Y36	Z36	X37	Y37	Z37	X38	Y38	Z38	X39	Y39	Z39	X40	Y40	Z40	X41	Y41	Z41	X42	Y42	Z42	X43	Y43	Z43	X44	Y44	Z44	X45	Y45	Z45	X46	Y46	Z46	X47	Y47	Z47	X48	Y48	Z48	X49	Y49	Z49	X50	Y50	Z50	X51	Y51	Z51	

194	1.93000000	-186.49985	645.59824	-365.72308	-188.40547	575.62564	-340.02213	-210.70304	266.62523	-372.63104	-269.18911	252.99703	-429.33775	-132.70757	184.07089	-329.21087	-73.17978	196.00993	-368.86950	-97.04138	700.69831	-731.30061	-78.47579	630.06491	-742.96402	-190.15920	337.31351	-731.70348	-262.49295	320.16984	-678.94850	-119.54267	256.97391	-764.33941	-60.75894	265.03318	-715.89688	-195.46240	464.44615	-333.99020	-254.93683	577.66265	-374.24430	-267.60220	462.34451	-374.12965	-163.09289	659.93263	-749.60479	-190.54376	541.00017	-757.54168	-132.90886	956.56639	-370.91998	-122.59123	845.42211	-355.26832	-177.83240	820.16143	-324.73714	-241.86081	950.80521	-335.59879	-231.64957	834.23285	-338.20698	-110.32766	994.51793	-703.01979	-67.59307	862.55165	-721.34204	-220.82145	961.28793	-722.75878	-170.44285	829.13458	-734.10565	-141.43368	1103.21118	-388.48148	-314.13109	1140.03974	-456.47262	-134.96553	1139.23289	-634.35377	-317.64483	1150.49527	-562.70128	-245.70888	1598.88632	-466.17557	-184.15329	1563.09551	-317.30001	-167.96294	1568.57418	-619.98468	-111.53104	1532.48853	-441.87659	-113.30156	1530.98537	-484.85434	-236.50811	1336.29518	-235.68384	-293.50285	1240.61721	-297.23259	-271.82078	1257.63928	-223.97800	-164.57696	1201.77980	-245.73558	-70.06522	1144.61158	-280.95939	-88.30696	1106.55517	-268.40931	-150.99390	1456.27002	-697.19046	-271.76256	1260.78864	-713.97195	-243.38903	1278.95947	-780.11151	-138.77986	1262.07656	-729.89495	-50.09541	1234.42173	-649.69541	-46.18218	1201.14473	-666.64688	-206.28434	1035.20113	-423.42394	-199.49425	1066.17963	-621.19022	-202.18509	1037.62576	-427.71786	-207.58291	1053.68778	-590.90446	
195	1.94000000	-185.03037	628.09725	-362.43292	-188.10121	558.12060	-336.74145	-212.58393	249.17473	-370.35545	-270.52286	237.74365	-428.01146	-137.04681	163.36523	-327.93137	-76.77028	175.33017	-366.10464	-93.33757	684.03793	-731.23261	-76.08398	612.87550	-743.07023	-192.58345	322.24918	-731.19915	-265.23108	305.53740	-678.75449	-122.23579	241.46878	-763.20551	-63.68318	249.32251	-714.66213	-196.56796	447.04322	-331.20011	-253.94541	560.82764	-372.13120	-267.67116	445.69691	-372.78928	-160.16128	644.19643	-749.84859	-189.43591	525.87144	-757.63494	-132.65282	939.51862	-368.83854	-121.85655	828.61540	-352.45135	-177.35942	803.01486	-322.68994	-241.93800	933.28694	-334.88717	-231.01039	816.83000	-336.81136	-107.61991	978.05535	-700.44873	-64.06881	846.42817	-719.03623	-217.50547	944.62669	-722.95875	-166.38997	812.77066	-734.88002	-141.48492	1085.18816	-386.22544	-314.17311	1121.55604	-455.04983	-133.92041	1122.65443	-631.84839	-316.99181	1133.10863	-561.46840	-245.80823	1580.68167	-464.76947	-184.47471	1546.39946	-315.79069	-167.89777	1550.69098	-617.76373	-111.55771	1514.71843	-440.34868	-112.45646	1514.09567	-489.28132	-236.77533	1319.98060	-233.43724	-292.11235	1223.28105	-295.38319	-270.80644	1240.79617	-222.12547	-161.18185	1191.12131	-244.25143	-63.74123	1139.93318	-280.19179	-79.73609	1100.53169	-268.01010	-151.16042	1439.31119	-695.83475	-271.40380	1243.15460	-712.51405	-243.62240	1261.96031	-779.06934	-138.47021	1248.72926	-729.05640	-48.89004	1225.26550	-648.96153	-44.03562	1191.87009	-664.90209	-206.04117	1017.10967	-422.07029	-198.18261	1049.36783	-619.59061	-201.73757	1019.04111	-426.66549	-206.06082	1036.73602	-589.71214	
196	1.95000000	-182.99035	610.06737	-359.19288	-187.27777	539.81927	-333.43205	-214.34460	231.05277	-368.00432	-271.78453	222.12467	-426.50981	-141.40493	142.47833	-326.25993	-80.44646	153.81731	-363.40789	-89.63636	666.31764	-730.84408	-73.40835	594.79892	-742.88019	-194.28779	306.15394	-730.43158	-267.48858	289.85506	-678.73653	-124.23666	225.29839	-762.09956	-66.00795	232.90347	-713.30715	-197.15095	428.86022	-328.22992	-252.36543	543.33838	-370.02916	-267.35233	428.34645	-371.21275	-156.95612	627.41365	-750.02273	-187.80599	509.70634	-757.89938	-132.45237	921.78237	-366.65581	-120.92996	810.99814	-349.60692	-176.63698	785.12716	-320.61064	-242.08338	914.78969	-333.90782	-230.28712	798.38927	-335.24022	-104.99055	960.26599	-697.79006	-60.59583	829.17466	-716.79750	-214.26524	926.82692	-723.09188	-162.40050	795.34361	-735.38105	-141.83084	1066.17391	-384.15517	-314.63652	1102.28407	-454.16048	-132.91202	1104.82108	-629.72853	-316.47898	1114.90813	-560.73813	-245.61050	1561.62700	-463.31785	-184.56441	1528.35904	-314.33322	-167.61732	1531.67413	-615.69736	-111.81692	1495.71165	-439.14821	-111.64666	1495.43307	-485.64213	-236.43732	1302.26666	-231.06225	-290.31168	1204.57357	-293.47675	-269.03028	1222.48694	-220.08186	-157.40162	1179.37914	-242.58977	-57.27095	1134.46120	-279.39109	-70.87176	1093.86526	-267.48361	-151.14100	1420.90680	-694.22841	-270.72500	1224.19954	-711.08533	-243.71049	1243.53077	-777.64087	-138.05389	1234.27016	-728.15626	-47.60984	1215.27048	-647.96410	-41.95981	1181.67890	-662.93412	-206.27100	998.11165	-420.99792	-197.08136	1031.43767	-618.28415	-201.77498	999.37237	-426.00356	-204.59169	1018.68203	-589.01626	
197	1.96000000	-180.27307	591.17497	-356.11106	-185.42607	520.75614	-330.37824	-216.34187	212.59561	-365.64197	-273.45678	205.78596	-424.59561	-145.69284	122.07806	-324.12625	-84.26590	132.11865	-360.94535	-85.85592	647.75432	-730.63628	-70.42682	575.81211	-742.48476	-195.52884	289.17102	-729.67078	-269.38780	273.16822	-678.81674	-125.55722	208.58981	-761.26503	-67.67416	216.05824	-711.92226	-196.83684	409.91343	-325.36331	-249.97518	525.28320	-367.75782	-266.42893	410.38480	-369.22636	-153.43789	609.64640	-750.41803	-185.98486	492.29273	-758.05444	-132.37889	903.38779	-364.40326	-119.80327	792.72565	-346.82925	-175.55430	766.43978	-318.43094	-242.28973	895.35019	-332.41426	-229.27665	779.00514	-333.28914	-102.64553	941.49395	-695.29944	-57.31394	810.89106	-714.71432	-211.28581	907.93179	-722.98059	-158.55301	776.89514	-735.62592	-142.86705	1046.43125	-382.06392	-315.39511	1082.42211	-453.87867	-131.96697	1085.54777	-627.76110	-316.21307	1095.78375	-560.28511	-245.08399	1541.60328	-461.87641	-184.32080	1508.76692	-313.17784	-167.10355	1511.62699	-613.91714	-111.05799	1475.92373	-437.29676	-110.79875	1475.71658	-483.60091	-235.41374	1283.23350	-228.41348	-287.21650	1184.40329	-291.16636	-266.46610	1202.74671	-217.66266	-153.16189	1166.60602	-240.71098	-50.57062	1128.19198	-278.45525	-61.69540	1086.80938	-266.68061	-150.88077	1401.09520	-692.56398	-269.56784	1203.90930	-709.52484	-243.47347	1223.65845	-775.99277	-137.50840	1218.69450	-727.26216	-46.36126	1204.24036	-646.64603	-39.75258	1170.61672	-661.02085	-207.16674	978.40207	-419.86439	-196.22461	1012.21510	-616.98018	-202.34198	978.94227	-425.15896	-203.59024	999.42294	-588.23503	
